<svg xmlns="http://www.w3.org/2000/svg" version="1.1" xmlns:xlink="http://www.w3.org/1999/xlink" xmlns:svgjs="http://svgjs.dev/svgjs" width="100%" height="100%" viewBox="0 0 1000 600"><rect width="1000" height="600" x="0" y="0" fill="#4a171e"/><g><circle r="166.66666666666666" cx="450.45844523111975" cy="472.68078751017674" fill="#E2V144" transform="matrix(0.4404635670576372,0,0,0.4404635670576371,0,91.80132928797912)"/><path d="M428.3291064739054 485.78474877095005L428.3291064739054 547.6807616519134L407.4950077481671 547.6807616519134L407.4950077481671 419.6998694795208L404.02265796054405 399.85787069310334Q406.9989577785067 399.3618207234429 411.32561584721157 398.9760040803737Q415.6247155842687 398.56262910565664 420.5025402859297 398.25948745753084Q425.3528066559428 397.9839041410528 430.203073025956 397.818554151166Q435.08089772761696 397.68076249292693 438.93906415830924 397.68076249292693L438.93906415830924 397.68076249292693Q450.34821346049927 397.68076249292693 460.820379486664 399.72007903486434Q471.29254551282884 401.7318372451538 479.3120200223392 406.4994286202236Q487.3590528634974 411.26701999529337 492.12664423856717 419.01091118832574Q496.8942356136369 426.7548023813581 496.8942356136369 438.16395168354813L496.8942356136369 438.16395168354813Q496.8942356136369 452.0533508340404 491.93373591703255 461.23027527275843Q486.9732362204282 470.40719971147655 477.9341034399491 475.8637493777413Q468.89497065947006 481.32029904400616 456.24569643312896 483.55252390747813Q443.5964222067878 485.78474877095005 428.3291064739054 485.78474877095005L428.3291064739054 485.78474877095005ZM426.3449065952637 412.86540323086587L428.3291064739054 433.8924102781388L428.3291064739054 471.7851162938666Q440.23430574575593 471.7851162938666 449.4663468477696 470.40719971147655Q458.6983879497833 469.0017247974386 465.0368042287778 465.39158335157657Q471.37522050777227 461.7538835740667 474.6546619738607 455.41546729507223Q477.9341034399491 449.07705101607775 477.9341034399491 439.0458182962778L477.9341034399491 439.0458182962778Q477.9341034399491 431.6050687513713 474.8200119637475 426.3414274066411Q471.67836215589807 421.0777860619109 466.71786245929366 417.71566960087904Q461.75736276268935 414.3535531398472 455.6118548052295 412.8102865675703Q449.4663468477696 411.26701999529337 443.4035138852532 411.26701999529337L443.4035138852532 411.26701999529337Q441.72245565473725 411.26701999529337 439.37999746467403 411.40481165353236Q437.0650976062587 411.5701616434192 434.6675227528999 411.7630699649538Q432.29750623118895 411.9559782864884 430.065281367717 412.25911993461426Q427.833056504245 412.56226158274006 426.3449065952637 412.86540323086587L426.3449065952637 412.86540323086587Z " fill="#4a171e" transform="matrix(0.4404635670576372,0,0,0.4404635670576371,0,91.80132928797912)"/><path d="M722.9088084155226 488.9585340695368L722.9088084155226 546.1280532358162L703.6656398982889 546.1280532358162L703.6656398982889 427.9200180585227L700.4584451454165 409.5931908992524Q703.2074692193071 409.13502022027063 707.2037356970924 408.7786652477293Q711.1745482482676 408.39685634857784 715.6798932582549 408.1168631558667Q720.1597843416321 407.8623238897658 724.6396754250093 407.70960033010516Q729.1450204349965 407.5823306970547 732.7085701604102 407.5823306970547L732.7085701604102 407.5823306970547Q743.2464957769906 407.5823306970547 752.9189878888277 409.4659212662019Q762.5914800006649 411.324057908739 769.9985726442033 415.7275872122859Q777.4311192143517 420.13111651583284 781.8346485178986 427.28366989327026Q786.2381778214456 434.43622327070767 786.2381778214456 444.9741488872881L786.2381778214456 444.9741488872881Q786.2381778214456 457.80292789877734 781.6564710316279 466.27908545993984Q777.0747642418104 474.75524302110233 768.7258763136983 479.79512048990165Q760.3769883855864 484.834997958701 748.6936360715515 486.89676601411895Q737.0102837575167 488.9585340695368 722.9088084155226 488.9585340695368L722.9088084155226 488.9585340695368ZM721.0761256995957 421.6074442592185L722.9088084155226 441.02879026272296L722.9088084155226 476.02793935160724Q733.9049047110848 476.02793935160724 742.4319701254675 474.75524302110233Q750.9590355398502 473.45709276398736 756.8134386601727 470.1226283780646Q762.6678417804951 466.7627100655317 765.6968590470967 460.90830694520923Q768.7258763136983 455.0539038248868 768.7258763136983 445.7886745388112L768.7258763136983 445.7886745388112Q768.7258763136983 438.91611435408487 765.8495826067574 434.0544143715562Q762.9478349732062 429.19271438902757 758.3661281833886 426.0873353425957Q753.784421393571 422.98195629616373 748.1081957595193 421.5565364059983Q742.4319701254675 420.13111651583284 736.832106271246 420.13111651583284L736.832106271246 420.13111651583284Q735.27941674803 420.13111651583284 733.1158329861718 420.2583861488833Q730.9777031509236 420.4111097085439 728.7632115358451 420.5892871948146Q726.5741738473766 420.76746468108524 724.5124057919588 421.0474578737963Q722.4506377365408 421.3274510665074 721.0761256995957 421.6074442592185L721.0761256995957 421.6074442592185ZM869.523425689685 529.6339087924728L871.3561084056121 546.1280532358162L852.1129398883783 546.1280532358162L852.1129398883783 531.2884140221292L843.5095126941652 541.5463464459986Q841.9313692443392 542.7426809966731 839.9205090421415 543.8371998409073Q837.9096488399438 544.9317186851415 835.8478807845258 545.7971521898849Q833.7861127291079 546.6880396212382 831.72434467369 547.1716642268302Q829.6625766182722 547.680742759032 827.9317096087855 547.680742759032L827.9317096087855 547.680742759032Q821.0591494240591 547.680742759032 814.772029551365 545.542612923784Q808.4849096786709 543.3790291619256 803.7759332558028 539.2045851978696Q799.0669568329347 535.0301412338135 796.267024905824 528.8448370675599Q793.4670929787133 522.6595329013062 793.4670929787133 514.6160920925153L793.4670929787133 514.6160920925153Q793.4670929787133 506.08902667813254 796.9033730710764 499.8019068054384Q800.3396531634396 493.5402408593544 805.7104316781703 489.3657968952984Q811.0557562662907 485.19135293124236 817.648323258306 483.1295848758245Q824.2663441769314 481.06781682040656 830.5789179762356 481.06781682040656L830.5789179762356 481.06781682040656Q835.7969729313056 481.06781682040656 839.793239409091 481.6278032058287Q843.7640519602662 482.1623356646408 846.5130760341567 482.9004995363336L846.5130760341567 482.9004995363336Q849.720270787029 483.7150251878567 852.1129398883783 484.73318225226063L852.1129398883783 484.73318225226063L852.1129398883783 481.52598749938835Q852.1129398883783 476.12975505804764 851.4765917231258 471.80258753433105Q850.8402435578734 467.5008739372245 848.8548372822858 464.5227645238431Q846.8948849333082 461.5446551104617 843.178611648234 459.9919655872457Q839.4623383631597 458.43927606402974 833.3279420501262 458.43927606402974L833.3279420501262 458.43927606402974Q828.3898802877673 458.43927606402974 823.8081734979496 459.1265320825024Q819.2264667081321 459.81378810097505 815.6374630561083 460.6283137524982L815.6374630561083 460.6283137524982Q811.4375651654422 461.6464708169021 807.8485615134184 462.74098966113627L807.8485615134184 462.74098966113627L801.2559945214032 450.4721970350692Q805.2777149257986 448.63951431914217 810.4194081010382 447.1631865757565L810.4194081010382 447.1631865757565Q814.8229374045852 445.8904902452516 820.8555180111783 444.82142532762754Q826.9135525443816 443.7778143366135 834.2442834080897 443.7778143366135L834.2442834080897 443.7778143366135Q844.7822090246701 443.7778143366135 851.6547692093965 446.60320019033435Q858.5273293941228 449.4540399706653 862.472688018688 454.595733145905Q866.4180466432531 459.71197239453465 867.9707361664691 466.9154336251923Q869.523425689685 474.0934409292398 869.523425689685 482.9004995363336L869.523425689685 482.9004995363336L869.523425689685 529.6339087924728ZM852.1129398883783 521.0304815982599L852.1129398883783 497.28196807103876Q849.5420933007583 496.9256130984974 846.6148917405972 496.5438041993459L846.6148917405972 496.5438041993459Q844.1458608594177 496.28926493324497 840.9386661065454 496.00927174053385Q837.7314713536731 495.7292785478228 834.2442834080897 495.7292785478228L834.2442834080897 495.7292785478228Q829.1025902328499 495.7292785478228 824.8517844889636 496.7474356122267Q820.6009787450773 497.7401387500205 817.4701457720354 499.98008429170915Q814.3647667256034 502.2454837600078 812.6084457895067 505.8090334854215Q810.87757878002 509.37258321083516 810.87757878002 514.5142763860749L810.87757878002 514.5142763860749Q810.87757878002 518.6378124969107 812.2520908169653 522.0231847360537Q813.6266028539106 525.4085569751967 816.0192719552598 527.9030417829863Q818.3864871299988 530.3720726641657 821.6445897360913 531.6956768478908Q824.9026923421839 533.0192810316158 828.6444195538681 533.0192810316158L828.6444195538681 533.0192810316158Q830.400740489965 533.0192810316158 832.3606928389424 532.5102024994139Q834.34609911453 532.026577893822 836.3060514635076 531.1865983156888Q838.2660038124851 530.3720726641657 840.2514100880727 529.2775538199314Q842.2113624370502 528.1575810490872 843.967683373147 527.0630622048529L843.967683373147 527.0630622048529Q848.0912194839827 524.4158538374029 852.1129398883783 521.0304815982599L852.1129398883783 521.0304815982599ZM919.0058590197148 468.7990241943395L919.0058590197148 546.1280532358162L901.595373218408 546.1280532358162L901.595373218408 445.3305038598295L919.0058590197148 443.49782114390246L919.0058590197148 460.27195877995683L924.6057228739363 450.4721970350692Q926.2347741769826 449.3522242642249 928.8056207646024 448.18134364016043Q931.3764673522222 446.9850090894858 934.5327542518744 446.0177598783021Q937.6890411515265 445.05051066711843 941.3544065833805 444.414162501866Q945.0197720152346 443.7778143366135 948.7869531535291 443.7778143366135L948.7869531535291 443.7778143366135Q956.0158683107968 443.7778143366135 961.030291852986 446.1195755847425Q966.0192614685652 448.4358829062614 969.124640514997 452.8394122098083Q972.2554734880391 457.24294151335516 973.5790776717641 463.4791535328291Q974.9026818554893 469.715365552303 974.9026818554893 477.4024513885525L974.9026818554893 477.4024513885525L974.9026818554893 546.1280532358162L957.4921960541824 546.1280532358162L957.4921960541824 477.4024513885525Q957.4921960541824 472.46438962619357 956.8049400357098 468.8753859741698Q956.1176840172373 465.31183624875615 954.4122709343607 462.9700750006271Q952.7323117780942 460.6283137524982 949.8814719977632 459.5337949082639Q947.0560861440424 458.43927606402974 942.8307343267662 458.43927606402974L942.8307343267662 458.43927606402974Q939.7253552803343 458.43927606402974 936.518160527462 459.4065252752135Q933.3109657745897 460.34832055978706 930.2310406547679 461.875556156393Q927.151115534946 463.3773378263887 924.2748218280051 465.2100205423157Q921.3985281210639 467.04270325824274 919.0058590197148 468.7990241943395L919.0058590197148 468.7990241943395ZM1076.260217616898 455.30844309098774L1067.1731658170931 465.6681912212975Q1063.6096160916795 462.4609964684252 1058.6970082559305 460.4501362662275Q1053.809854346792 458.43927606402974 1048.566345465112 458.43927606402974L1048.566345465112 458.43927606402974Q1040.8792596288622 458.43927606402974 1035.4830271875217 461.3155697709708Q1030.061340819571 464.2173174045219 1026.7268764336482 469.1553791668809Q1023.3669581211152 474.0934409292398 1021.8142685978992 480.660553994645Q1020.2615790746833 487.2022131334401 1020.2615790746833 494.45658221731793L1020.2615790746833 494.45658221731793Q1020.2615790746833 501.96549056729674 1021.6869989648487 508.78714289880287Q1023.1124188550141 515.608795230309 1026.497791094157 520.826850185379Q1029.8831633333002 526.0703590670591 1035.5084811141319 529.124830260271Q1041.1592528215733 532.2047553800928 1049.5845025295157 532.2047553800928L1049.5845025295157 532.2047553800928Q1056.6352402005127 532.2047553800928 1061.5478480362617 530.5502501504363Q1066.4350019454005 528.8957449207801 1069.1076642394605 527.0630622048529L1069.1076642394605 527.0630622048529L1075.7002312314758 539.9936569227825Q1070.558538056236 543.4808448683659 1063.73688572473 545.568066850394Q1056.9152333932238 547.680742759032 1048.3118061990108 547.680742759032L1048.3118061990108 547.680742759032Q1036.857539224467 547.680742759032 1028.2286581036437 543.1499438224347Q1019.6252309094308 538.6191448858374 1013.8980974221588 531.0593286826384Q1008.1709639348869 523.4995124794393 1005.2692163013357 513.6488428813316Q1002.3929225943947 503.7981732832238 1002.3929225943947 493.26024766664335L1002.3929225943947 493.26024766664335Q1002.3929225943947 483.7150251878567 1005.1928545215055 474.78069694771244Q1007.9927864486162 465.84636870756816 1013.7199199358881 458.9738085228418Q1019.4470534231601 452.10124833811545 1028.1777502504237 447.95225830066954Q1036.9339010042972 443.7778143366135 1048.7699768779926 443.7778143366135L1048.7699768779926 443.7778143366135Q1057.195226585935 443.7778143366135 1063.8387014311704 446.3741148508435Q1070.4821762764059 448.99586929168356 1076.260217616898 455.30844309098774L1076.260217616898 455.30844309098774ZM1167.3343670278273 529.6339087924728L1169.1670497437544 546.1280532358162L1149.9238812265207 546.1280532358162L1149.9238812265207 531.2884140221292L1141.3204540323077 541.5463464459986Q1139.7423105824817 542.7426809966731 1137.7314503802838 543.8371998409073Q1135.7205901780862 544.9317186851415 1133.6588221226682 545.7971521898849Q1131.5970540672504 546.6880396212382 1129.5352860118323 547.1716642268302Q1127.4735179564145 547.680742759032 1125.7426509469278 547.680742759032L1125.7426509469278 547.680742759032Q1118.8700907622015 547.680742759032 1112.5829708895074 545.542612923784Q1106.2958510168132 543.3790291619256 1101.5868745939451 539.2045851978696Q1096.877898171077 535.0301412338135 1094.0779662439663 528.8448370675599Q1091.2780343168556 522.6595329013062 1091.2780343168556 514.6160920925153L1091.2780343168556 514.6160920925153Q1091.2780343168556 506.08902667813254 1094.7143144092188 499.8019068054384Q1098.150594501582 493.5402408593544 1103.5213730163127 489.3657968952984Q1108.866697604433 485.19135293124236 1115.4592645964485 483.1295848758245Q1122.0772855150738 481.06781682040656 1128.389859314378 481.06781682040656L1128.389859314378 481.06781682040656Q1133.607914269448 481.06781682040656 1137.6041807472334 481.6278032058287Q1141.5749932984086 482.1623356646408 1144.324017372299 482.9004995363336L1144.324017372299 482.9004995363336Q1147.5312121251714 483.7150251878567 1149.9238812265207 484.73318225226063L1149.9238812265207 484.73318225226063L1149.9238812265207 481.52598749938835Q1149.9238812265207 476.12975505804764 1149.2875330612683 471.80258753433105Q1148.6511848960158 467.5008739372245 1146.6657786204282 464.5227645238431Q1144.7058262714506 461.5446551104617 1140.9895529863763 459.9919655872457Q1137.273279701302 458.43927606402974 1131.1388833882686 458.43927606402974L1131.1388833882686 458.43927606402974Q1126.2008216259096 458.43927606402974 1121.619114836092 459.1265320825024Q1117.0374080462745 459.81378810097505 1113.4484043942507 460.6283137524982L1113.4484043942507 460.6283137524982Q1109.2485065035846 461.6464708169021 1105.6595028515608 462.74098966113627L1105.6595028515608 462.74098966113627L1099.0669358595455 450.4721970350692Q1103.088656263941 448.63951431914217 1108.2303494391808 447.1631865757565L1108.2303494391808 447.1631865757565Q1112.6338787427276 445.8904902452516 1118.6664593493206 444.82142532762754Q1124.7244938825238 443.7778143366135 1132.055224746232 443.7778143366135L1132.055224746232 443.7778143366135Q1142.5931503628126 443.7778143366135 1149.465710547539 446.60320019033435Q1156.3382707322653 449.4540399706653 1160.2836293568303 454.595733145905Q1164.2289879813954 459.71197239453465 1165.7816775046115 466.9154336251923Q1167.3343670278273 474.0934409292398 1167.3343670278273 482.9004995363336L1167.3343670278273 482.9004995363336L1167.3343670278273 529.6339087924728ZM1149.9238812265207 521.0304815982599L1149.9238812265207 497.28196807103876Q1147.3530346389007 496.9256130984974 1144.4258330787395 496.5438041993459L1144.4258330787395 496.5438041993459Q1141.9568021975601 496.28926493324497 1138.7496074446879 496.00927174053385Q1135.5424126918153 495.7292785478228 1132.055224746232 495.7292785478228L1132.055224746232 495.7292785478228Q1126.9135315709923 495.7292785478228 1122.662725827106 496.7474356122267Q1118.4119200832197 497.7401387500205 1115.2810871101779 499.98008429170915Q1112.1757080637458 502.2454837600078 1110.419387127649 505.8090334854215Q1108.6885201181624 509.37258321083516 1108.6885201181624 514.5142763860749L1108.6885201181624 514.5142763860749Q1108.6885201181624 518.6378124969107 1110.0630321551077 522.0231847360537Q1111.4375441920529 525.4085569751967 1113.830213293402 527.9030417829863Q1116.1974284681412 530.3720726641657 1119.4555310742337 531.6956768478908Q1122.7136336803262 533.0192810316158 1126.4553608920105 533.0192810316158L1126.4553608920105 533.0192810316158Q1128.2116818281074 533.0192810316158 1130.1716341770848 532.5102024994139Q1132.1570404526724 532.026577893822 1134.11699280165 531.1865983156888Q1136.0769451506276 530.3720726641657 1138.0623514262152 529.2775538199314Q1140.0223037751925 528.1575810490872 1141.7786247112895 527.0630622048529L1141.7786247112895 527.0630622048529Q1145.902160822125 524.4158538374029 1149.9238812265207 521.0304815982599L1149.9238812265207 521.0304815982599ZM1216.8168003578571 546.1280532358162L1199.4063145565503 546.1280532358162L1199.4063145565503 416.007580404997L1197.5736318406234 399.5134359616537L1216.8168003578571 397.6807532457267L1216.8168003578571 482.9004995363336L1250.7214306025073 445.3305038598295L1271.6954661292277 445.3305038598295L1237.7908358845777 482.9004995363336L1222.4166642120786 488.67854087682576L1237.7908358845777 494.17658902460687L1281.8770367732668 546.1280532358162L1260.2411991546837 546.1280532358162L1216.8168003578571 495.0929303825704L1216.8168003578571 546.1280532358162ZM1360.402400365418 525.510372681637L1370.4057935231865 534.3174312887309Q1367.5549537428556 537.244632848892 1364.1695815037124 539.7136637300715Q1360.7842092645694 542.182694611251 1356.6606731537338 543.9644694739578Q1352.5371370428977 545.7716982632749 1347.5227135007087 546.7134935478484Q1342.5337438851295 547.680742759032 1336.399347572096 547.680742759032L1336.399347572096 547.680742759032Q1324.2069167258592 547.680742759032 1315.6034895316461 543.3790291619256Q1306.9746084108233 539.0773155648192 1301.5274681162623 531.8229464809413Q1296.0803278217013 524.5940313236736 1293.5603890873017 515.2524402577676Q1291.040450352902 505.91084919186187 1291.040450352902 495.7292785478228L1291.040450352902 495.7292785478228Q1291.040450352902 489.21307333563783 1292.2367849035763 482.8495916831134Q1293.433119454251 476.486110030589 1295.8003346289902 470.7080686900968Q1298.1930037303396 464.93002734960464 1301.756553455753 459.9919655872457Q1305.3455571077768 455.0539038248868 1310.1054413838651 451.464900172863Q1314.8653256599534 447.9013504474493 1320.8724523399362 445.83958239203145Q1326.8795790199194 443.7778143366135 1334.1084941771871 443.7778143366135L1334.1084941771871 443.7778143366135Q1344.0100716285153 443.7778143366135 1351.2389867857828 446.9850090894858Q1358.4933558696607 450.19220384235814 1363.253240145749 455.9702451828503Q1368.0131244218371 461.72283259673236 1370.303977816746 469.7917273321333Q1372.5948312116545 477.8606220675343 1372.5948312116545 487.66038381242186L1372.5948312116545 487.66038381242186Q1372.5948312116545 490.5112235927528 1372.4166537253839 493.8965958318958Q1372.2384762391132 497.28196807103876 1371.856667339962 500.3109853376404L1371.856667339962 500.3109853376404L1308.4509361542086 500.3109853376404Q1308.4509361542086 507.1835455223667 1310.334526723356 513.1397643491296Q1312.2181172925032 519.0959831758925 1315.6034895316461 523.5504203326595Q1318.988861770789 527.9794035628165 1323.7996539000976 530.4993422972161Q1328.6104460294061 533.0192810316158 1334.566664856169 533.0192810316158L1334.566664856169 533.0192810316158Q1340.4210679764913 533.0192810316158 1344.773689426818 532.1538475268726Q1349.1263108771448 531.2884140221292 1352.2571438501866 530.0411716182343Q1355.3625228966187 528.8193831409496 1357.3479291722062 527.5212328838347Q1359.3078815211838 526.2485365533298 1360.402400365418 525.510372681637L1360.402400365418 525.510372681637ZM1321.7378858446798 486.56586496818767L1355.184345410348 486.56586496818767Q1355.2861611167884 485.54770790378376 1355.3116150433987 484.55500476598996Q1355.3625228966187 483.53684770158605 1355.3625228966187 482.5441445637922L1355.3625228966187 482.5441445637922Q1355.3625228966187 477.3006356821121 1354.166188345944 472.9225603051753Q1352.9953077218795 468.51903100162843 1350.5517307673101 465.2609283955359Q1348.133607739351 462.0028257894434 1344.3664266010567 460.1701430735164Q1340.6246993893722 458.33746035758935 1335.4830062141325 458.33746035758935L1335.4830062141325 458.33746035758935Q1329.3486099010988 458.33746035758935 1324.9959884507723 460.322866633177Q1320.6433670004456 462.28281898215454 1317.6652575870642 465.3627441019763Q1314.6871481736828 468.41721529518804 1312.9053733109756 472.0825807270421Q1311.0981445216587 475.7479461588961 1310.1818031636953 479.05695661820886L1310.1818031636953 479.05695661820886L1305.4219188876073 489.03489584936716L1321.7378858446798 486.56586496818767ZM1483.4721355252402 488.9585340695368L1483.4721355252402 546.1280532358162L1464.2289670080063 546.1280532358162L1464.2289670080063 427.9200180585227L1461.021772255134 409.5931908992524Q1463.7707963290245 409.13502022027063 1467.7670628068097 408.7786652477293Q1471.7378753579849 408.39685634857784 1476.2432203679725 408.1168631558667Q1480.7231114513495 407.8623238897658 1485.2030025347267 407.70960033010516Q1489.708347544714 407.5823306970547 1493.2718972701275 407.5823306970547L1493.2718972701275 407.5823306970547Q1503.8098228867082 407.5823306970547 1513.4823149985452 409.4659212662019Q1523.1548071103823 411.324057908739 1530.5618997539207 415.7275872122859Q1537.9944463240693 420.13111651583284 1542.3979756276162 427.28366989327026Q1546.801504931163 434.43622327070767 1546.801504931163 444.9741488872881L1546.801504931163 444.9741488872881Q1546.801504931163 457.80292789877734 1542.2197981413453 466.27908545993984Q1537.638091351528 474.75524302110233 1529.2892034234158 479.79512048990165Q1520.940315495304 484.834997958701 1509.256963181269 486.89676601411895Q1497.5736108672343 488.9585340695368 1483.4721355252402 488.9585340695368L1483.4721355252402 488.9585340695368ZM1481.639452809313 421.6074442592185L1483.4721355252402 441.02879026272296L1483.4721355252402 476.02793935160724Q1494.4682318208022 476.02793935160724 1502.995297235185 474.75524302110233Q1511.5223626495679 473.45709276398736 1517.3767657698902 470.1226283780646Q1523.2311688902125 466.7627100655317 1526.2601861568144 460.90830694520923Q1529.2892034234158 455.0539038248868 1529.2892034234158 445.7886745388112L1529.2892034234158 445.7886745388112Q1529.2892034234158 438.91611435408487 1526.4129097164748 434.0544143715562Q1523.5111620829236 429.19271438902757 1518.9294552931062 426.0873353425957Q1514.3477485032884 422.98195629616373 1508.6715228692367 421.5565364059983Q1502.995297235185 420.13111651583284 1497.3954333809636 420.13111651583284L1497.3954333809636 420.13111651583284Q1495.8427438577476 420.13111651583284 1493.6791600958893 420.2583861488833Q1491.541030260641 420.4111097085439 1489.3265386455626 420.5892871948146Q1487.137500957094 420.76746468108524 1485.0757329016762 421.0474578737963Q1483.0139648462584 421.3274510665074 1481.639452809313 421.6074442592185L1481.639452809313 421.6074442592185ZM1630.0867527994026 529.6339087924728L1631.9194355153295 546.1280532358162L1612.6762669980956 546.1280532358162L1612.6762669980956 531.2884140221292L1604.0728398038825 541.5463464459986Q1602.4946963540567 542.7426809966731 1600.483836151859 543.8371998409073Q1598.472975949661 544.9317186851415 1596.4112078942433 545.7971521898849Q1594.3494398388254 546.6880396212382 1592.2876717834076 547.1716642268302Q1590.2259037279896 547.680742759032 1588.495036718503 547.680742759032L1588.495036718503 547.680742759032Q1581.6224765337768 547.680742759032 1575.3353566610824 545.542612923784Q1569.0482367883885 543.3790291619256 1564.3392603655204 539.2045851978696Q1559.6302839426523 535.0301412338135 1556.8303520155416 528.8448370675599Q1554.030420088431 522.6595329013062 1554.030420088431 514.6160920925153L1554.030420088431 514.6160920925153Q1554.030420088431 506.08902667813254 1557.466700180794 499.8019068054384Q1560.9029802731573 493.5402408593544 1566.2737587878878 489.3657968952984Q1571.6190833760081 485.19135293124236 1578.2116503680236 483.1295848758245Q1584.8296712866488 481.06781682040656 1591.142245085953 481.06781682040656L1591.142245085953 481.06781682040656Q1596.3603000410233 481.06781682040656 1600.3565665188084 481.6278032058287Q1604.3273790699839 482.1623356646408 1607.0764031438741 482.9004995363336L1607.0764031438741 482.9004995363336Q1610.2835978967466 483.7150251878567 1612.6762669980956 484.73318225226063L1612.6762669980956 484.73318225226063L1612.6762669980956 481.52598749938835Q1612.6762669980956 476.12975505804764 1612.0399188328431 471.80258753433105Q1611.4035706675907 467.5008739372245 1609.4181643920033 464.5227645238431Q1607.4582120430257 461.5446551104617 1603.7419387579514 459.9919655872457Q1600.025665472877 458.43927606402974 1593.8912691598437 458.43927606402974L1593.8912691598437 458.43927606402974Q1588.953207397485 458.43927606402974 1584.371500607667 459.1265320825024Q1579.7897938178496 459.81378810097505 1576.200790165826 460.6283137524982L1576.200790165826 460.6283137524982Q1572.0008922751597 461.6464708169021 1568.411888623136 462.74098966113627L1568.411888623136 462.74098966113627L1561.8193216311206 450.4721970350692Q1565.841042035516 448.63951431914217 1570.9827352107557 447.1631865757565L1570.9827352107557 447.1631865757565Q1575.3862645143026 445.8904902452516 1581.4188451208959 444.82142532762754Q1587.476879654099 443.7778143366135 1594.8076105178072 443.7778143366135L1594.8076105178072 443.7778143366135Q1605.3455361343877 443.7778143366135 1612.2180963191138 446.60320019033435Q1619.0906565038404 449.4540399706653 1623.0360151284053 454.595733145905Q1626.9813737529705 459.71197239453465 1628.5340632761865 466.9154336251923Q1630.0867527994026 474.0934409292398 1630.0867527994026 482.9004995363336L1630.0867527994026 482.9004995363336L1630.0867527994026 529.6339087924728ZM1612.6762669980956 521.0304815982599L1612.6762669980956 497.28196807103876Q1610.105420410476 496.9256130984974 1607.1782188503146 496.5438041993459L1607.1782188503146 496.5438041993459Q1604.709187969135 496.28926493324497 1601.501993216263 496.00927174053385Q1598.2947984633904 495.7292785478228 1594.8076105178072 495.7292785478228L1594.8076105178072 495.7292785478228Q1589.6659173425676 495.7292785478228 1585.4151115986813 496.7474356122267Q1581.164305854795 497.7401387500205 1578.033472881753 499.98008429170915Q1574.9280938353209 502.2454837600078 1573.1717728992242 505.8090334854215Q1571.4409058897375 509.37258321083516 1571.4409058897375 514.5142763860749L1571.4409058897375 514.5142763860749Q1571.4409058897375 518.6378124969107 1572.8154179266828 522.0231847360537Q1574.1899299636282 525.4085569751967 1576.582599064977 527.9030417829863Q1578.9498142397163 530.3720726641657 1582.2079168458088 531.6956768478908Q1585.4660194519013 533.0192810316158 1589.2077466635858 533.0192810316158L1589.2077466635858 533.0192810316158Q1590.9640675996823 533.0192810316158 1592.92401994866 532.5102024994139Q1594.9094262242477 532.026577893822 1596.869378573225 531.1865983156888Q1598.8293309222024 530.3720726641657 1600.8147371977902 529.2775538199314Q1602.7746895467678 528.1575810490872 1604.5310104828645 527.0630622048529L1604.5310104828645 527.0630622048529Q1608.6545465937004 524.4158538374029 1612.6762669980956 521.0304815982599L1612.6762669980956 521.0304815982599ZM1679.5691861294324 397.6807532457267L1679.5691861294324 511.6634366057439Q1679.5691861294324 517.7214711389472 1680.2564421479049 521.7940993965628Q1680.9436981663775 525.8667276541785 1682.2673023501027 528.3866663885781Q1683.5909065338278 530.9066051229777 1685.5763128094154 531.9756700406019Q1687.536265158393 533.0192810316158 1690.1071117460126 533.0192810316158L1690.1071117460126 533.0192810316158Q1692.1179719482104 533.0192810316158 1693.772477177867 532.790195692125Q1695.4269824075232 532.5611103526342 1696.6233169581976 532.2047553800928L1696.6233169581976 532.2047553800928Q1697.997828995143 531.8229464809413 1699.0923478393772 531.3647758019595L1699.0923478393772 531.3647758019595L1705.4049216386813 542.4626878039621Q1704.6667577669887 543.2008516756548 1703.0631603905524 544.0662851803982Q1701.4595630141162 544.9317186851415 1699.270525325648 545.7716982632749Q1697.0814876371794 546.586223914798 1694.2815557100687 547.14621030022Q1691.481623782958 547.680742759032 1688.274429030086 547.680742759032L1688.274429030086 547.680742759032Q1680.0273568084142 547.680742759032 1674.885663633174 544.6517254924304Q1669.7694243845447 541.648162152439 1666.918584604214 536.4046532707589Q1664.093198750493 531.1865983156888 1663.125949539309 524.2631302777422Q1662.1587003281254 517.3651161664059 1662.1587003281254 509.47439891727555L1662.1587003281254 509.47439891727555L1662.1587003281254 417.840263120924L1660.3260176121985 399.5134359616537L1679.5691861294324 397.6807532457267ZM1790.4464904430176 529.6339087924728L1792.2791731589448 546.1280532358162L1773.0360046417106 546.1280532358162L1773.0360046417106 531.2884140221292L1764.432577447498 541.5463464459986Q1762.8544339976718 542.7426809966731 1760.843573795474 543.8371998409073Q1758.8327135932766 544.9317186851415 1756.7709455378583 545.7971521898849Q1754.7091774824405 546.6880396212382 1752.6474094270227 547.1716642268302Q1750.5856413716049 547.680742759032 1748.8547743621182 547.680742759032L1748.8547743621182 547.680742759032Q1741.9822141773918 547.680742759032 1735.6950943046975 545.542612923784Q1729.4079744320036 543.3790291619256 1724.6989980091355 539.2045851978696Q1719.9900215862674 535.0301412338135 1717.1900896591567 528.8448370675599Q1714.390157732046 522.6595329013062 1714.390157732046 514.6160920925153L1714.390157732046 514.6160920925153Q1714.390157732046 506.08902667813254 1717.8264378244091 499.8019068054384Q1721.2627179167723 493.5402408593544 1726.633496431503 489.3657968952984Q1731.9788210196232 485.19135293124236 1738.5713880116389 483.1295848758245Q1745.1894089302639 481.06781682040656 1751.501982729568 481.06781682040656L1751.501982729568 481.06781682040656Q1756.7200376846383 481.06781682040656 1760.7163041624237 481.6278032058287Q1764.687116713599 482.1623356646408 1767.4361407874892 482.9004995363336L1767.4361407874892 482.9004995363336Q1770.6433355403617 483.7150251878567 1773.0360046417106 484.73318225226063L1773.0360046417106 484.73318225226063L1773.0360046417106 481.52598749938835Q1773.0360046417106 476.12975505804764 1772.3996564764586 471.80258753433105Q1771.7633083112057 467.5008739372245 1769.7779020356186 464.5227645238431Q1767.8179496866408 461.5446551104617 1764.1016764015665 459.9919655872457Q1760.3854031164922 458.43927606402974 1754.2510068034587 458.43927606402974L1754.2510068034587 458.43927606402974Q1749.3129450411 458.43927606402974 1744.731238251282 459.1265320825024Q1740.1495314614647 459.81378810097505 1736.560527809441 460.6283137524982L1736.560527809441 460.6283137524982Q1732.3606299187747 461.6464708169021 1728.7716262667511 462.74098966113627L1728.7716262667511 462.74098966113627L1722.179059274736 450.4721970350692Q1726.200779679131 448.63951431914217 1731.3424728543707 447.1631865757565L1731.3424728543707 447.1631865757565Q1735.746002157918 445.8904902452516 1741.778582764511 444.82142532762754Q1747.8366172977142 443.7778143366135 1755.1673481614223 443.7778143366135L1755.1673481614223 443.7778143366135Q1765.705273778003 443.7778143366135 1772.5778339627288 446.60320019033435Q1779.4503941474552 449.4540399706653 1783.3957527720206 454.595733145905Q1787.3411113965856 459.71197239453465 1788.8938009198016 466.9154336251923Q1790.4464904430176 474.0934409292398 1790.4464904430176 482.9004995363336L1790.4464904430176 482.9004995363336L1790.4464904430176 529.6339087924728ZM1773.0360046417106 521.0304815982599L1773.0360046417106 497.28196807103876Q1770.465158054091 496.9256130984974 1767.5379564939296 496.5438041993459L1767.5379564939296 496.5438041993459Q1765.06892561275 496.28926493324497 1761.861730859878 496.00927174053385Q1758.6545361070055 495.7292785478228 1755.1673481614223 495.7292785478228L1755.1673481614223 495.7292785478228Q1750.0256549861826 495.7292785478228 1745.7748492422963 496.7474356122267Q1741.52404349841 497.7401387500205 1738.3932105253682 499.98008429170915Q1735.2878314789361 502.2454837600078 1733.5315105428392 505.8090334854215Q1731.8006435333525 509.37258321083516 1731.8006435333525 514.5142763860749L1731.8006435333525 514.5142763860749Q1731.8006435333525 518.6378124969107 1733.1751555702979 522.0231847360537Q1734.5496676072432 525.4085569751967 1736.9423367085922 527.9030417829863Q1739.3095518833313 530.3720726641657 1742.5676544894238 531.6956768478908Q1745.8257570955163 533.0192810316158 1749.5674843072009 533.0192810316158L1749.5674843072009 533.0192810316158Q1751.3238052432978 533.0192810316158 1753.2837575922752 532.5102024994139Q1755.2691638678627 532.026577893822 1757.22911621684 531.1865983156888Q1759.1890685658175 530.3720726641657 1761.1744748414055 529.2775538199314Q1763.134427190383 528.1575810490872 1764.8907481264798 527.0630622048529L1764.8907481264798 527.0630622048529Q1769.0142842373155 524.4158538374029 1773.0360046417106 521.0304815982599L1773.0360046417106 521.0304815982599ZM1887.2223194146088 455.30844309098774L1878.1352676148038 465.6681912212975Q1874.5717178893904 462.4609964684252 1869.6591100536418 460.4501362662275Q1864.7719561445026 458.43927606402974 1859.5284472628225 458.43927606402974L1859.5284472628225 458.43927606402974Q1851.841361426573 458.43927606402974 1846.4451289852325 461.3155697709708Q1841.0234426172817 464.2173174045219 1837.688978231359 469.1553791668809Q1834.329059918826 474.0934409292398 1832.77637039561 480.660553994645Q1831.223680872394 487.2022131334401 1831.223680872394 494.45658221731793L1831.223680872394 494.45658221731793Q1831.223680872394 501.96549056729674 1832.6491007625593 508.78714289880287Q1834.0745206527251 515.608795230309 1837.4598928918679 520.826850185379Q1840.845265131011 526.0703590670591 1846.4705829118427 529.124830260271Q1852.1213546192841 532.2047553800928 1860.5466043272265 532.2047553800928L1860.5466043272265 532.2047553800928Q1867.5973419982236 532.2047553800928 1872.5099498339725 530.5502501504363Q1877.3971037431113 528.8957449207801 1880.0697660371713 527.0630622048529L1880.0697660371713 527.0630622048529L1886.6623330291866 539.9936569227825Q1881.520639853947 543.4808448683659 1874.698987522441 545.568066850394Q1867.8773351909347 547.680742759032 1859.2739079967216 547.680742759032L1859.2739079967216 547.680742759032Q1847.8196410221774 547.680742759032 1839.1907599013546 543.1499438224347Q1830.5873327071415 538.6191448858374 1824.8601992198694 531.0593286826384Q1819.1330657325977 523.4995124794393 1816.2313180990466 513.6488428813316Q1813.3550243921056 503.7981732832238 1813.3550243921056 493.26024766664335L1813.3550243921056 493.26024766664335Q1813.3550243921056 483.7150251878567 1816.1549563192164 474.78069694771244Q1818.954888246327 465.84636870756816 1824.6820217335992 458.9738085228418Q1830.4091552208708 452.10124833811545 1839.1398520481346 447.95225830066954Q1847.896002802008 443.7778143366135 1859.7320786757034 443.7778143366135L1859.7320786757034 443.7778143366135Q1868.1573283836458 443.7778143366135 1874.8008032288815 446.3741148508435Q1881.4442780741167 448.99586929168356 1887.2223194146088 455.30844309098774L1887.2223194146088 455.30844309098774ZM1974.3511102009732 525.510372681637L1984.3545033587413 534.3174312887309Q1981.5036635784106 537.244632848892 1978.1182913392674 539.7136637300715Q1974.7329191001247 542.182694611251 1970.6093829892886 543.9644694739578Q1966.485846878453 545.7716982632749 1961.4714233362636 546.7134935478484Q1956.4824537206844 547.680742759032 1950.348057407651 547.680742759032L1950.348057407651 547.680742759032Q1938.1556265614142 547.680742759032 1929.5521993672012 543.3790291619256Q1920.9233182463784 539.0773155648192 1915.4761779518174 531.8229464809413Q1910.0290376572564 524.5940313236736 1907.5090989228568 515.2524402577676Q1904.9891601884572 505.91084919186187 1904.9891601884572 495.7292785478228L1904.9891601884572 495.7292785478228Q1904.9891601884572 489.21307333563783 1906.1854947391319 482.8495916831134Q1907.381829289806 476.486110030589 1909.7490444645452 470.7080686900968Q1912.1417135658946 464.93002734960464 1915.705263291308 459.9919655872457Q1919.294266943332 455.0539038248868 1924.0541512194202 451.464900172863Q1928.8140354955083 447.9013504474493 1934.8211621754915 445.83958239203145Q1940.8282888554747 443.7778143366135 1948.0572040127424 443.7778143366135L1948.0572040127424 443.7778143366135Q1957.9587814640702 443.7778143366135 1965.1876966213379 446.9850090894858Q1972.4420657052158 450.19220384235814 1977.2019499813039 455.9702451828503Q1981.9618342573924 461.72283259673236 1984.2526876523013 469.7917273321333Q1986.5435410472098 477.8606220675343 1986.5435410472098 487.66038381242186L1986.5435410472098 487.66038381242186Q1986.5435410472098 490.5112235927528 1986.3653635609392 493.8965958318958Q1986.1871860746685 497.28196807103876 1985.8053771755174 500.3109853376404L1985.8053771755174 500.3109853376404L1922.3996459897637 500.3109853376404Q1922.3996459897637 507.1835455223667 1924.2832365589109 513.1397643491296Q1926.1668271280585 519.0959831758925 1929.5521993672012 523.5504203326595Q1932.9375716063444 527.9794035628165 1937.748363735653 530.4993422972161Q1942.559155864961 533.0192810316158 1948.5153746917238 533.0192810316158L1948.5153746917238 533.0192810316158Q1954.3697778120466 533.0192810316158 1958.7223992623733 532.1538475268726Q1963.0750207127 531.2884140221292 1966.2058536857419 530.0411716182343Q1969.3112327321735 528.8193831409496 1971.2966390077615 527.5212328838347Q1973.256591356739 526.2485365533298 1974.3511102009732 525.510372681637L1974.3511102009732 525.510372681637ZM1935.686595680235 486.56586496818767L1969.1330552459033 486.56586496818767Q1969.2348709523437 485.54770790378376 1969.2603248789535 484.55500476598996Q1969.3112327321735 483.53684770158605 1969.3112327321735 482.5441445637922L1969.3112327321735 482.5441445637922Q1969.3112327321735 477.3006356821121 1968.1148981814993 472.9225603051753Q1966.9440175574348 468.51903100162843 1964.5004406028654 465.2609283955359Q1962.0823175749063 462.0028257894434 1958.3151364366115 460.1701430735164Q1954.573409224927 458.33746035758935 1949.4317160496873 458.33746035758935L1949.4317160496873 458.33746035758935Q1943.2973197366543 458.33746035758935 1938.9446982863271 460.322866633177Q1934.5920768360004 462.28281898215454 1931.613967422619 465.3627441019763Q1928.6358580092376 468.41721529518804 1926.854083146531 472.0825807270421Q1925.046854357214 475.7479461588961 1924.1305129992504 479.05695661820886L1924.1305129992504 479.05695661820886L1919.3706287231623 489.03489584936716L1935.686595680235 486.56586496818767Z " fill="#E2V144" transform="matrix(0.4404635670576372,0,0,0.4404635670576371,0,91.80132928797912)"/></g></svg>